# xmcd
#
# Track frame offsets:
#	200
#	15317
#	34250
#	51490
#	79922
#	94660
#	111145
#	123117
#	140037
#	153940
#	168877
#
# Disc length: 2476 seconds
#
# Revision: 1
# Processed by: cddbd v1.5.2PL0 Copyright (c) Steve Scherf et al.
# Submitted via: audiograbber 1.83.01
#
DISCID=8509aa0b
DTITLE=Appaloosa All-Stars - Appaloosa
DYEAR=1993
DGENRE=Blues
TTITLE0=Key To The Highway
TTITLE1=Beale Street
TTITLE2=Club Foot
TTITLE3=Rock Me Baby/I'm A King Bee
TTITLE4=Temporary InSanity
TTITLE5=Blues Before Sunrise
TTITLE6=Meltdown
TTITLE7=Black Widow Spider
TTITLE8=Bad Spell
TTITLE9=My Baby
TTITLE10=All Night Boogie
EXTD=
EXTT0=
EXTT1=
EXTT2=
EXTT3=
EXTT4=
EXTT5=
EXTT6=
EXTT7=
EXTT8=
EXTT9=
EXTT10=
PLAYORDER=
